<?xml version="1.0" encoding="utf-8"?>
<!-- Generator: Adobe Illustrator 16.0.0, SVG Export Plug-In . SVG Version: 6.00 Build 0)  -->
<!DOCTYPE svg PUBLIC "-//W3C//DTD SVG 1.1//EN" "http://www.w3.org/Graphics/SVG/1.1/DTD/svg11.dtd">
<svg version="1.1" id="Layer_1" xmlns="http://www.w3.org/2000/svg" xmlns:xlink="http://www.w3.org/1999/xlink" x="0px" y="0px"
	 fill="white" viewBox="0 0 128 128" enable-background="new 0 0 128 128" xml:space="preserve">
<g>
	<g>
		<g>
			<path  d="M38.763,69.334l-3.974-0.447c1.983-17.626,10.157-33.456,22.425-43.432L64,19.935l6.788,5.521
				c12.152,9.883,20.308,25.554,22.374,42.994l-3.973,0.471c-1.944-16.417-9.572-31.129-20.925-40.361L64,25.09l-4.263,3.468
				C48.275,37.879,40.631,52.741,38.763,69.334z"/>
		</g>
		<g>
			<path  d="M58.368,122.712c0,0-0.001,0-0.001,0c-14.383-0.001-29.145-6.577-40.499-18.044
				C5.154,91.829-1.427,74.716,0.261,58.889l0.171-1.601l1.602-0.175c1.593-0.173,3.231-0.261,4.869-0.261
				c14.381,0,29.143,6.577,40.501,18.046c12.713,12.834,19.293,29.947,17.604,45.776l-0.171,1.602l-1.601,0.174
				C61.643,122.623,60.005,122.712,58.368,122.712z M4.097,60.946C3.14,75.13,9.273,90.304,20.71,101.854
				c10.608,10.714,24.334,16.858,37.657,16.859c0,0,0.001,0,0.001,0c0.938,0,1.877-0.032,2.805-0.095
				c0.957-14.187-5.175-29.36-16.61-40.906c-10.612-10.715-24.339-16.86-37.66-16.86C5.964,60.852,5.025,60.884,4.097,60.946z"/>
		</g>
		<g>
			<path  d="M69.635,122.711c-0.001,0-0.001,0-0.002,0c-1.638,0-3.275-0.088-4.867-0.261l-1.601-0.174l-0.171-1.602
				c-1.688-15.823,4.893-32.936,17.604-45.776c11.359-11.469,26.12-18.046,40.501-18.046c1.637,0,3.274,0.088,4.868,0.261
				l1.601,0.175l0.171,1.601c1.69,15.827-4.892,32.94-17.605,45.777C98.781,116.135,84.02,122.711,69.635,122.711z M66.829,118.618
				c0.927,0.063,1.865,0.094,2.804,0.094c13.325,0.001,27.052-6.145,37.658-16.86c11.438-11.548,17.569-26.721,16.612-40.905
				c-0.928-0.063-1.866-0.095-2.805-0.095c-13.32,0-27.046,6.146-37.659,16.86C72.006,89.264,65.873,104.437,66.829,118.618z"/>
		</g>
		<g>
			<g>
				<path d="M63.575,122.504c-15.1-4.617-28.136-17.425-34.872-34.26c-6.734-16.83-6.169-35.178,1.51-49.08
					l0.784-1.42l1.551,0.475c15.099,4.616,28.134,17.423,34.869,34.258c2.576,6.435,4.105,13.099,4.546,19.805l-3.992,0.262
					c-0.412-6.285-1.848-12.537-4.267-18.58c-6.053-15.131-17.472-26.751-30.758-31.405c-6.364,12.678-6.587,29.061-0.529,44.2
					c6.29,15.721,18.375,27.655,32.327,31.923L63.575,122.504z"/>
			</g>
			<g>
				<path  d="M64.428,122.504l-1.17-3.823c13.951-4.268,26.037-16.202,32.328-31.923
					c6.056-15.137,5.832-31.52-0.53-44.2c-13.285,4.654-24.705,16.274-30.758,31.405c-2.475,6.188-3.92,12.58-4.293,19.001
					l-3.993-0.232c0.398-6.852,1.937-13.666,4.572-20.255c6.736-16.836,19.771-29.643,34.87-34.258l1.552-0.475l0.784,1.42
					c7.678,13.905,8.242,32.253,1.509,49.08C92.563,105.078,79.526,117.887,64.428,122.504z"/>
			</g>
		</g>
	</g>
	<g>
		<g>
			<path  d="M14.196,59.59h-4c0-0.684,0.013-1.363,0.038-2.04l3.997,0.146C14.208,58.324,14.196,58.955,14.196,59.59z
				"/>
		</g>
		<g>
			<path d="M113.666,55.82c-0.082-1.132-0.204-2.272-0.362-3.39l3.961-0.559c0.17,1.205,0.302,2.436,0.392,3.656
				L113.666,55.82z M14.504,53.959l-3.975-0.438c0.149-1.354,0.352-2.72,0.602-4.058l3.931,0.734
				C14.831,51.438,14.643,52.703,14.504,53.959z M112.631,48.688c-0.271-1.238-0.591-2.477-0.951-3.681l3.832-1.146
				c0.389,1.3,0.734,2.637,1.027,3.972L112.631,48.688z M15.901,46.49l-3.865-1.029c0.35-1.315,0.755-2.635,1.205-3.923l3.776,1.317
				C16.601,44.049,16.226,45.271,15.901,46.49z M110.453,41.41c-0.451-1.177-0.954-2.352-1.494-3.492l3.615-1.711
				c0.583,1.231,1.126,2.5,1.613,3.77L110.453,41.41z M18.406,39.314l-3.666-1.601c0.545-1.249,1.146-2.494,1.784-3.698l3.535,1.871
				C19.468,37.004,18.912,38.156,18.406,39.314z M107.204,34.549c-0.623-1.095-1.297-2.182-2.004-3.23l3.318-2.234
				c0.762,1.131,1.489,2.304,2.162,3.485L107.204,34.549z M21.965,32.597l-3.384-2.134c0.727-1.151,1.507-2.291,2.32-3.388
				l3.212,2.383C23.36,30.475,22.637,31.53,21.965,32.597z M102.96,28.248c-0.783-0.991-1.613-1.965-2.467-2.893l2.943-2.708
				c0.922,1.001,1.817,2.052,2.662,3.122L102.96,28.248z M26.492,26.491l-3.024-2.617c0.89-1.028,1.833-2.037,2.802-3l2.818,2.838
				C28.19,24.604,27.317,25.539,26.492,26.491z M97.815,22.656c-0.919-0.859-1.886-1.697-2.873-2.489l2.502-3.12
				c1.066,0.855,2.109,1.76,3.103,2.688L97.815,22.656z M31.885,21.137l-2.596-3.043c1.04-0.887,2.124-1.742,3.222-2.544
				l2.357,3.231C33.852,19.523,32.848,20.315,31.885,21.137z M91.89,17.903c-1.041-0.712-2.124-1.394-3.218-2.025l2-3.464
				c1.182,0.683,2.352,1.418,3.476,2.188L91.89,17.903z M38.02,16.66l-2.105-3.401c1.158-0.717,2.359-1.397,3.571-2.024l1.839,3.552
				C40.203,15.366,39.092,15.997,38.02,16.66z M85.309,14.105c-1.137-0.545-2.311-1.053-3.487-1.508l1.443-3.73
				c1.274,0.493,2.543,1.042,3.772,1.632L85.309,14.105z M44.761,13.173l-1.56-3.684c1.253-0.53,2.544-1.02,3.837-1.453l1.272,3.792
				C47.114,12.229,45.919,12.682,44.761,13.173z M78.227,11.363c-1.205-0.362-2.442-0.683-3.676-0.951l0.852-3.908
				c1.334,0.291,2.672,0.637,3.977,1.029L78.227,11.363z M51.954,10.763l-0.973-3.88C52.301,6.552,53.652,6.268,55,6.038
				l0.672,3.943C54.425,10.194,53.175,10.457,51.954,10.763z M70.81,9.748c-1.244-0.172-2.516-0.298-3.779-0.374l0.242-3.993
				c1.364,0.082,2.739,0.219,4.086,0.405L70.81,9.748z M59.437,9.49l-0.366-3.983c1.355-0.125,2.734-0.198,4.1-0.219l0.061,4
				C61.967,9.307,60.691,9.375,59.437,9.49z"/>
		</g>
		<g>
			<path d="M117.803,59.59h-4c0-0.635-0.012-1.267-0.034-1.896l3.998-0.144
				C117.791,58.228,117.803,58.907,117.803,59.59z"/>
		</g>
	</g>
</g>
</svg>
